<?xml version="1.0" encoding="UTF-8" ?>
<!DOCTYPE svg PUBLIC "-//W3C//DTD SVG 1.1//EN" "http://www.w3.org/Graphics/SVG/1.1/DTD/svg11.dtd">
<svg width="463pt" height="387pt" viewBox="0 0 463 387" version="1.1" xmlns="http://www.w3.org/2000/svg">
<g id="#ffffffff">
<path fill="#ffffff" opacity="1.00" d=" M 74.59 0.00 L 388.39 0.00 C 388.42 19.26 388.41 38.52 388.40 57.78 C 382.75 58.88 377.15 60.26 371.58 61.72 C 314.13 77.22 257.49 97.32 205.63 126.81 C 191.78 135.08 177.79 143.40 165.67 154.12 C 164.80 154.73 163.94 155.36 163.09 156.00 C 147.66 171.39 136.28 191.25 132.88 212.93 C 128.11 239.86 135.40 268.40 151.76 290.23 C 153.23 291.93 154.70 293.64 155.96 295.52 L 156.39 295.26 C 156.57 295.66 156.93 296.47 157.11 296.87 C 159.91 299.57 162.46 302.55 165.59 304.90 L 165.44 305.05 C 169.50 308.14 173.48 311.34 177.83 314.03 C 194.73 324.95 214.96 330.09 234.99 329.75 C 252.74 329.00 270.40 323.84 285.37 314.18 C 287.30 312.82 289.26 311.50 291.24 310.22 C 292.94 308.78 294.66 307.36 296.49 306.09 L 296.57 305.89 C 300.62 302.41 304.42 298.61 307.89 294.55 L 308.11 294.48 C 310.76 290.74 313.65 287.17 316.17 283.33 C 317.49 280.98 318.88 278.67 320.29 276.37 C 327.55 262.03 331.62 246.09 331.56 229.99 C 350.55 229.98 369.53 229.98 388.52 229.98 C 388.33 254.13 382.78 278.30 371.77 299.83 C 369.28 304.93 366.44 309.83 363.39 314.60 C 362.25 316.38 361.06 318.12 359.81 319.82 C 359.17 320.77 358.51 321.71 357.87 322.66 C 356.68 324.28 355.40 325.84 354.18 327.44 L 353.93 327.58 C 352.37 329.88 350.43 331.89 348.43 333.80 L 348.59 334.63 L 347.93 334.50 C 344.62 338.77 340.77 342.67 336.47 345.94 L 336.58 346.10 C 334.28 347.95 332.17 350.03 329.82 351.83 C 327.23 353.92 324.63 356.02 321.81 357.81 C 314.29 363.28 306.16 367.96 297.72 371.84 C 262.75 388.37 221.46 391.28 184.59 379.54 C 166.36 373.80 149.13 364.77 134.21 352.80 C 132.11 351.24 130.20 349.48 128.23 347.78 C 123.07 343.47 118.05 338.81 114.03 333.41 L 113.21 333.88 L 113.63 332.88 C 111.66 330.98 109.78 329.00 108.15 326.81 C 107.18 325.47 106.16 324.16 105.17 322.83 C 102.28 319.00 99.58 315.02 97.19 310.85 C 96.31 309.46 95.48 308.04 94.63 306.64 C 80.71 281.95 73.46 253.38 74.66 225.02 C 75.32 204.08 80.20 183.20 89.21 164.27 C 90.31 161.40 91.64 158.61 93.42 156.09 C 93.45 155.89 93.51 155.47 93.55 155.26 C 100.99 141.98 109.89 129.42 120.88 118.83 C 121.54 118.20 122.21 117.56 122.86 116.92 C 127.39 112.23 132.22 107.83 137.57 104.08 L 137.39 103.81 C 160.66 86.93 185.51 72.27 211.45 59.86 C 212.71 59.54 212.95 58.24 213.40 57.21 C 167.09 57.23 120.78 57.20 74.47 57.23 C 74.75 38.15 74.51 19.07 74.59 0.00 Z" />
<path fill="#ffffff" opacity="1.00" d=" M 0.00 59.92 L 0.62 54.75 C 19.52 54.80 38.41 54.76 57.31 54.77 C 57.17 165.51 57.29 276.26 57.26 387.00 L 0.00 387.00 L 0.00 59.92 Z" />
<path fill="#ffffff" opacity="1.00" d=" M 405.69 54.77 C 424.79 54.78 443.90 54.76 463.00 54.78 L 463.00 387.00 L 405.75 387.00 C 405.69 276.26 405.84 165.51 405.69 54.77 Z" />
<path fill="#ffffff" opacity="1.00" d=" M 224.30 166.00 C 228.72 165.93 233.14 165.76 237.55 166.11 C 249.14 167.70 260.57 171.84 269.74 179.25 C 272.75 181.18 275.04 183.99 277.62 186.43 C 278.78 187.71 280.33 188.83 280.70 190.64 L 281.19 190.47 C 282.04 191.75 282.95 192.98 283.78 194.27 C 284.67 195.59 285.49 196.94 286.32 198.30 C 287.19 199.94 288.08 201.59 288.80 203.31 C 297.67 222.10 296.04 245.32 284.80 262.78 C 284.13 263.78 283.48 264.79 282.80 265.79 C 281.94 267.21 280.82 268.46 279.74 269.71 C 277.45 272.79 274.77 275.76 271.48 277.78 L 271.39 278.20 C 270.11 279.09 269.00 280.33 267.41 280.69 L 267.53 281.21 C 265.02 282.85 262.46 284.41 259.75 285.70 C 240.36 296.09 215.64 294.70 197.23 282.79 C 196.22 282.13 195.22 281.45 194.23 280.77 C 192.60 279.60 191.05 278.33 189.46 277.13 L 189.55 276.19 L 188.20 276.72 L 188.68 275.70 C 187.29 275.52 186.48 274.72 186.24 273.29 L 185.31 273.94 L 185.67 272.34 L 184.18 272.76 L 184.79 271.35 L 183.40 271.66 L 183.61 270.82 C 176.57 263.76 172.21 254.38 169.62 244.85 C 164.94 227.45 168.75 208.32 178.79 193.49 L 179.35 193.59 C 179.70 191.95 180.94 190.75 181.80 189.38 L 182.29 189.70 C 182.74 187.63 184.62 186.39 185.94 184.89 C 187.76 183.27 189.26 181.11 191.62 180.25 L 191.51 179.79 C 192.76 178.94 193.98 178.06 195.25 177.24 C 203.52 171.27 213.44 167.65 223.55 166.50 L 224.30 166.00 Z" />
</g>
</svg>
